#!OML:ASF H:\Male1\Project 1\Capture day 1\Session 1\Male1.ASF
:FULLY-SPECIFIED
:DEGREES
128
root -23.1564 14.8962 -0.844971 -13.1931 84.715 -16.3765
lowerback 3.24183 2.32843 -0.762375
upperback 3.26895 3.16408 -1.35139
thorax 1.57507 1.60945 -1.01445
lowerneck -11.8437 5.21377 7.78231
upperneck 8.36029 6.2096 -4.44268
head 4.82072 3.02889 -2.1458
rclavicle -1.81888e-014 2.46493e-014
rhumerus -28.6278 8.30217 -97.1158
rradius 35.7237
rwrist -22.6581
rhand -14.7282 0.553296
rfingers 7.12502
rthumb 11.4269 -29.1153
lclavicle -1.81888e-014 2.46493e-014
lhumerus -42.7954 -6.87602 89.0909
lradius 32.0054
lwrist 2.90472
lhand -19.959 11.8912
lfingers 7.12502
lthumb 6.3794 41.7752
rfemur -10.4107 15.6858 22.9636
rtibia 33.6713
rfoot -34.5074 -30.0626
rtoes -33.9976
lfemur -11.237 -15.3696 -22.8809
ltibia 35.6422
lfoot -34.578 21.1201
ltoes -6.85589
129
root -23.0895 14.8882 -0.877841 -14.1035 84.4116 -17.5378
lowerback 3.31172 2.38401 -0.745012
upperback 3.25441 3.23542 -1.29566
thorax 1.51965 1.64447 -0.972065
lowerneck -11.8233 5.28159 7.7465
upperneck 8.1772 6.31896 -4.58403
head 4.77081 3.07187 -2.17667
rclavicle -4.32357e-014 8.74653e-015
rhumerus -28.4648 8.67108 -97.2867
rradius 36.9719
rwrist -25.8741
rhand -14.2813 -0.322571
rfingers 7.12502
rthumb 11.8578 -29.9668
lclavicle -4.32357e-014 8.74653e-015
lhumerus -43.7069 -6.63403 89.3292
lradius 32.3725
lwrist 3.08712
lhand -19.928 11.7481
lfingers 7.12502
lthumb 6.40936 41.6312
rfemur -10.7426 15.2363 22.9039
rtibia 34.052
rfoot -34.1344 -29.6273
rtoes -34.1299
lfemur -11.1228 -15.1032 -22.856
ltibia 35.4943
lfoot -34.7743 21.2618
ltoes -7.63901
130
root -23.0035 14.8705 -0.885522 -16.9249 85.3028 -20.2946
lowerback 3.40186 2.10217 -1.225
upperback 3.44499 2.85712 -1.20838
thorax 1.6334 1.44682 -0.607314
lowerneck -11.8313 5.26103 7.75006
upperneck 7.85258 6.29659 -4.72883
head 4.67511 3.05062 -2.22684
rclavicle -2.42517e-014 3.18055e-015
rhumerus -28.2778 8.63343 -97.3141
rradius 38.1685
rwrist -28.9891
rhand -14.0513 -1.16392
rfingers 7.12502
rthumb 12.0796 -30.7953
lclavicle -2.42517e-014 3.18055e-015
lhumerus -44.2915 -6.30031 89.4262
lradius 32.4192
lwrist 3.1095
lhand -19.9657 11.4781
lfingers 7.12502
lthumb 6.37297 41.3623
rfemur -10.4768 14.8415 23.0765
rtibia 34.6397
rfoot -34.6667 -30.0154
rtoes -33.5247
lfemur -10.6475 -15.2283 -22.9115
ltibia 35.2805
lfoot -34.7482 20.6723
ltoes -8.44493
131
root -22.9028 14.8496 -0.893373 -21.611 86.7071 -24.8349
lowerback 3.45637 1.67291 -1.80566
upperback 3.66785 2.28534 -1.18425
thorax 1.8088 1.15027 -0.244912
lowerneck -11.8926 5.19529 7.89747
upperneck 7.79843 6.18897 -4.83352
head 4.66974 2.99495 -2.29105
rclavicle 2.18663e-014 -8.74653e-015
rhumerus -28.0959 8.22233 -97.1912
rradius 39.1014
rwrist -31.1931
rhand -13.7062 -1.51858
rfingers 7.12502
rthumb 12.4124 -31.13
lclavicle 2.18663e-014 -8.74653e-015
lhumerus -44.7727 -5.88099 89.3991
lradius 32.2608
lwrist 3.09762
lhand -20.055 11.3225
lfingers 7.12502
lthumb 6.28673 41.2092
rfemur -10.1114 13.9651 23.1141
rtibia 35.4613
rfoot -35.4443 -30.1739
rtoes -32.2188
lfemur -10.021 -15.739 -23.179
ltibia 35.0035
lfoot -34.6885 19.8984
ltoes -8.60064
132
root -22.8349 14.8407 -0.943036 -13.3874 85.6559 -16.8682
lowerback 3.7486 2.00684 -1.90761
upperback 3.55788 2.71765 -1.32747
thorax 1.53147 1.36809 -0.357352
lowerneck -11.8017 5.18894 7.86401
upperneck 7.60529 6.18957 -4.85153
head 4.59472 2.99365 -2.29486
rclavicle 2.74323e-014 -1.98785e-014
rhumerus -27.9099 7.92873 -97.0127
rradius 39.7898
rwrist -32.4431
rhand -13.5063 -1.46794
rfingers 7.12502
rthumb 12.6051 -31.0676
lclavicle 2.74323e-014 -1.98785e-014
lhumerus -45.291 -5.13311 89.2319
lradius 32.1605
lwrist 3.19881
lhand -20.1189 11.4466
lfingers 7.12502
lthumb 6.22502 41.3352
rfemur -11.2269 12.5597 22.2737
rtibia 36.6347
rfoot -33.7715 -28.5407
rtoes -32.899
lfemur -9.72634 -15.3404 -23.7514
ltibia 34.6349
lfoot -35.0536 20.4866
ltoes -7.08508
133
root -22.7461 14.8316 -0.970827 -11.3728 85.5957 -15.0644
lowerback 3.81545 1.9254 -2.23253
upperback 3.58534 2.60259 -1.37342
thorax 1.51193 1.30534 -0.222485
lowerneck -11.7559 5.26652 7.86526
upperneck 7.40296 6.29197 -4.85564
head 4.53138 3.04354 -2.29032
rclavicle -3.77691e-015 -1.59028e-015
rhumerus -27.7453 7.94165 -96.9505
rradius 40.4521
rwrist -32.9375
rhand -13.7178 -1.06409
rfingers 7.12502
rthumb 12.4012 -30.6762
lclavicle -3.77691e-015 -1.59028e-015
lhumerus -45.689 -4.16033 88.8455
lradius 32.166
lwrist 3.52171
lhand -20.1334 11.5211
lfingers 7.12502
lthumb 6.21106 41.4101
rfemur -12.1534 11.4151 21.8972
rtibia 38.181
rfoot -33.6624 -27.6482
rtoes -31.63
lfemur -9.33648 -15.1923 -24.0783
ltibia 34.1759
lfoot -34.9934 20.6326
ltoes -6.75236
134
root -22.6565 14.8197 -0.998438 -6.87907 85.6914 -10.6304
lowerback 4.07149 1.84149 -2.7039
upperback 3.68218 2.481 -1.52581
thorax 1.45904 1.23992 -0.120083
lowerneck -11.8368 5.28268 7.99781
upperneck 7.27782 6.29092 -4.93801
head 4.51278 3.04042 -2.33618
rclavicle -9.93923e-016 6.36111e-015
rhumerus -27.6863 7.98869 -96.9205
rradius 41.2339
rwrist -32.8113
rhand -14.3794 -0.672201
rfingers 7.12502
rthumb 11.7632 -30.3219
lclavicle -9.93923e-016 6.36111e-015
lhumerus -45.8606 -3.32742 88.3528
lradius 32.1589
lwrist 4.17095
lhand -20.1463 11.2263
lfingers 7.12502
lthumb 6.19853 41.1156
rfemur -13.1569 10.0659 21.3495
rtibia 40.2024
rfoot -32.7728 -26.8959
rtoes -31.137
lfemur -8.73116 -15.0626 -24.6802
ltibia 33.6183
lfoot -34.8876 20.7154
ltoes -6.87277
135
root -22.5621 14.809 -1.0271 1.46232 85.8759 -2.41745
lowerback 4.27584 1.78931 -3.34181
upperback 3.74659 2.39721 -1.7387
thorax 1.39908 1.19128 0.0135092
lowerneck -11.8917 5.1698 7.90333
upperneck 7.16599 6.14607 -4.92717
head 4.47454 2.96607 -2.32998
rclavicle -9.74045e-015 -1.27222e-014
rhumerus -27.7641 7.92546 -96.7379
rradius 42.0313
rwrist -32.1246
rhand -15.339 -0.401296
rfingers 7.12502
rthumb 10.8377 -30.1017
lclavicle -9.74045e-015 -1.27222e-014
lhumerus -45.8195 -2.65127 87.9331
lradius 32.0529
lwrist 5.13666
lhand -20.4105 11.2152
lfingers 7.12502
lthumb 5.94347 41.1118
rfemur -14.4491 8.58225 20.5625
rtibia 42.6238
rfoot -32.0725 -26.1527
rtoes -30.1166
lfemur -8.15515 -15.0581 -25.5606
ltibia 32.9933
lfoot -34.7355 20.8488
ltoes -6.98557
136
root -22.4694 14.8003 -1.04959 9.82133 85.701 5.77469
lowerback 4.56484 1.80942 -4.06397
upperback 3.77891 2.39799 -1.94203
thorax 1.25471 1.18484 0.197152
lowerneck -11.9064 5.08451 7.63908
upperneck 6.94398 6.05311 -4.78788
head 4.38986 2.92016 -2.25445
rclavicle 1.13307e-014 -1.11319e-014
rhumerus -27.9281 7.94382 -96.5281
rradius 42.8397
rwrist -31.0121
rhand -16.0506 -0.155812
rfingers 7.12502
rthumb 10.1513 -29.8909
lclavicle 1.13307e-014 -1.11319e-014
lhumerus -45.5326 -1.87897 87.4119
lradius 31.9234
lwrist 6.22834
lhand -20.9571 11.7838
lfingers 7.12502
lthumb 5.41574 41.6946
rfemur -16.1082 7.35016 19.8778
rtibia 45.4017
rfoot -31.0921 -25.8958
rtoes -29.5273
lfemur -7.57861 -14.9114 -26.4094
ltibia 32.2954
lfoot -34.7035 20.9069
ltoes -6.52797
137
root -22.3684 14.7916 -1.0733 13.144 85.5277 8.8428
lowerback 4.81704 1.78545 -4.40436
upperback 3.78957 2.34605 -2.07282
thorax 1.12111 1.15809 0.245621
lowerneck -11.8691 5.04597 7.51735
upperneck 6.62437 6.00615 -4.68989
head 4.27552 2.89896 -2.21233
rclavicle -5.96354e-016 -3.4191e-014
rhumerus -28.2623 8.15839 -96.4116
rradius 43.7078
rwrist -30.2725
rhand -17.0213 0.261693
rfingers 7.12502
rthumb 9.21484 -29.517
lclavicle -5.96354e-016 -3.4191e-014
lhumerus -45.1217 -0.967325 86.7161
lradius 31.9717
lwrist 7.25521
lhand -21.1328 13.2308
lfingers 7.12502
lthumb 5.24614 43.1458
rfemur -18.0411 6.22083 19.6748
rtibia 48.3422
rfoot -29.5035 -26.3361
rtoes -30.7483
lfemur -7.02938 -14.8608 -26.8734
ltibia 31.542
lfoot -34.7296 21.013
ltoes -6.11773
138
root -22.2612 14.7831 -1.09679 15.0122 85.3369 10.4798
lowerback 5.12928 1.75469 -4.64561
upperback 3.81248 2.28253 -2.16164
thorax 0.969302 1.12737 0.281056
lowerneck -11.8465 5.01982 7.46864
upperneck 6.29405 5.97419 -4.70379
head 4.16722 2.88074 -2.21493
rclavicle -1.92821e-014 -7.95139e-016
rhumerus -28.6958 8.44812 -96.2395
rradius 44.4534
rwrist -29.7222
rhand -17.7279 1.11061
rfingers 7.12502
rthumb 8.53292 -28.697
lclavicle -1.92821e-014 -7.95139e-016
lhumerus -44.6067 -0.0912458 86.0113
lradius 32.1964
lwrist 8.22163
lhand -21.6127 13.7422
lfingers 7.12502
lthumb 4.78271 43.6682
rfemur -20.0979 5.21079 19.6428
rtibia 51.2238
rfoot -29.0242 -26.5392
rtoes -29.8753
lfemur -6.36672 -14.9368 -27.2916
ltibia 30.7156
lfoot -34.7925 21.3127
ltoes -5.93527
139
root -22.1482 14.7789 -1.11781 17.6962 84.9901 12.8973
lowerback 5.40968 1.74349 -5.0456
upperback 3.85112 2.24057 -2.2532
thorax 0.846349 1.10444 0.4025
lowerneck -11.4545 5.04005 7.33104
upperneck 5.59706 6.03757 -4.72723
head 3.89052 2.91118 -2.21012
rclavicle 2.92213e-014 0
rhumerus -29.1754 8.90124 -96.0214
rradius 45.203
rwrist -29.4952
rhand -18.3643 1.71008
rfingers 7.12502
rthumb 7.9187 -28.1216
lclavicle 2.92213e-014 0
lhumerus -43.9318 0.649903 85.429
lradius 32.8645
lwrist 9.50743
lhand -22.2025 15.635
lfingers 7.12502
lthumb 4.21323 45.5731
rfemur -22.3081 4.37196 19.5283
rtibia 53.9347
rfoot -28.3956 -25.5358
rtoes -29.4225
lfemur -5.66436 -15.0479 -27.8626
ltibia 29.8086
lfoot -34.9444 21.6917
ltoes -5.59888
140
root -22.0196 14.7818 -1.13914 21.8424 85.3129 16.7468
lowerback 5.70294 1.5098 -5.24131
upperback 3.8855 1.90798 -2.32504
thorax 0.731209 0.939977 0.446224
lowerneck -11.4113 5.01472 7.62413
upperneck 5.38863 5.98576 -5.04791
head 3.8359 2.87613 -2.36178
rclavicle -3.97569e-016 3.18055e-015
rhumerus -29.8368 9.27247 -95.8085
rradius 45.934
rwrist -29.4166
rhand -18.9121 2.29664
rfingers 7.12502
rthumb 7.38998 -27.5543
lclavicle -3.97569e-016 3.18055e-015
lhumerus -43.2307 1.09465 84.97
lradius 33.6622
lwrist 10.5207
lhand -23.0943 15.0504
lfingers 7.12502
lthumb 3.352 45.0038
rfemur -24.5712 3.13337 19.6072
rtibia 56.2282
rfoot -27.2395 -25.2624
rtoes -29.8205
lfemur -4.88015 -15.546 -28.3064
ltibia 28.7464
lfoot -34.8838 21.8884
ltoes -5.69908
141
root -21.8831 14.7766 -1.15655 27.4897 85.5223 22.1175
lowerback 6.01833 1.32976 -5.54662
upperback 3.90751 1.63926 -2.43718
thorax 0.588571 0.807504 0.507353
lowerneck -11.4321 4.98624 7.83971
upperneck 5.30818 5.92326 -5.18087
head 3.82136 2.84294 -2.44185
rclavicle 2.3059e-014 -3.4191e-014
rhumerus -30.6779 9.37637 -95.5663
rradius 46.64
rwrist -29.2872
rhand -19.3369 3.18811
rfingers 7.12502
rthumb 6.97996 -26.6768
lclavicle 2.3059e-014 -3.4191e-014
lhumerus -42.3927 1.07183 84.7639
lradius 34.9197
lwrist 11.453
lhand -24.7027 15.2963
lfingers 7.12502
lthumb 1.79871 45.2685
rfemur -26.7487 2.10584 19.6367
rtibia 58.16
rfoot -27.4434 -23.7325
rtoes -28.774
lfemur -3.95888 -15.9872 -28.8744
ltibia 27.5538
lfoot -34.7996 22.0888
ltoes -5.94801
